<svg width="64" height="64" viewBox="0 0 64 64" fill="none" xmlns="http://www.w3.org/2000/svg">
    <rect width="64" height="64" rx="32" fill="#FF2D20" fill-opacity="0.1"/>
    <g clip-path="url(#clip0_298_122)">
        <path d="M36.5971 32.6349C36.606 32.5919 36.6033 32.5472 36.5893 32.5055C36.5752 32.4639 36.5503 32.4267 36.5171 32.3979C36.2765 32.1889 36.0834 31.9309 35.9507 31.6411C35.8181 31.3514 35.749 31.0366 35.7481 30.7179C35.7491 30.5229 35.7781 30.3279 35.8321 30.1399C35.8456 30.0915 35.8443 30.0402 35.8283 29.9925C35.8122 29.9449 35.7822 29.9032 35.7421 29.8729C34.3327 28.855 32.6534 28.2774 30.9161 28.2129C30.8572 28.2064 30.7979 28.2211 30.7488 28.2542C30.6998 28.2874 30.664 28.3369 30.6481 28.3939C30.501 28.9177 30.187 29.3791 29.7539 29.7083C29.3208 30.0375 28.7921 30.2164 28.2481 30.2179C28.2374 30.2177 28.227 30.2214 28.2188 30.2281C28.2105 30.2349 28.205 30.2444 28.2031 30.2549C27.9683 31.5286 27.9369 32.8314 28.1101 34.1149C28.1173 34.1681 28.1414 34.2177 28.1788 34.2562C28.2162 34.2947 28.265 34.3202 28.3181 34.3289C30.5381 34.6949 32.6851 35.4089 34.6801 36.4469C34.734 36.4744 34.796 36.4815 34.8548 36.467C34.9135 36.4525 34.9651 36.4173 35.0001 36.3679C35.7798 35.2446 36.3232 33.9746 36.5971 32.6349ZM33.6161 37.9679C33.6455 37.9401 33.6678 37.9055 33.6809 37.8672C33.6941 37.8289 33.6977 37.7879 33.6915 37.7479C33.6853 37.7078 33.6695 37.6699 33.6454 37.6373C33.6212 37.6047 33.5896 37.5785 33.5531 37.5609C32.0773 36.8425 30.5175 36.3114 28.9101 35.9799C28.867 35.9711 28.8223 35.9738 28.7806 35.9877C28.7389 36.0017 28.7016 36.0264 28.6725 36.0593C28.6434 36.0923 28.6235 36.1324 28.6148 36.1755C28.6061 36.2186 28.609 36.2632 28.6231 36.3049C28.7741 36.7599 28.9571 37.2029 29.1711 37.6329C29.6081 38.4599 30.1521 39.2269 30.7901 39.9129C30.8295 39.9571 30.8833 39.9858 30.942 39.9938C31.0006 40.0019 31.0602 39.9888 31.1101 39.9569C31.9812 39.34 32.8178 38.6757 33.6161 37.9669V37.9679ZM26.3031 34.1049C26.3392 34.1073 26.3755 34.1017 26.4093 34.0886C26.4432 34.0756 26.4738 34.0553 26.499 34.0292C26.5242 34.0032 26.5434 33.9719 26.5553 33.9377C26.5673 33.9034 26.5716 33.867 26.5681 33.8309C26.4254 32.4801 26.4946 31.1154 26.7731 29.7859C26.7773 29.7734 26.7775 29.7599 26.7735 29.7473C26.7696 29.7347 26.7617 29.7237 26.7511 29.7159C26.4129 29.4598 26.1456 29.1219 25.9741 28.7339C25.9521 28.6823 25.9135 28.6395 25.8644 28.6125C25.8152 28.5855 25.7584 28.5757 25.7031 28.5849C23.6029 28.9603 21.6572 29.9384 20.1031 31.3999C20.0591 31.4434 20.0325 31.5013 20.0281 31.5629C20.0201 31.6979 20.0081 31.8329 20.0081 31.9689C20.0101 32.7689 20.0921 33.5669 20.2541 34.3499C20.2608 34.3827 20.274 34.4139 20.293 34.4415C20.312 34.4691 20.3364 34.4926 20.3647 34.5106C20.3929 34.5286 20.4245 34.5408 20.4576 34.5463C20.4906 34.5519 20.5245 34.5507 20.5571 34.5429C22.441 34.1192 24.3766 33.9717 26.3031 34.1049ZM29.2281 40.9139C29.2649 40.8994 29.2978 40.8763 29.3239 40.8466C29.3501 40.8169 29.3688 40.7814 29.3786 40.743C29.3884 40.7046 29.3889 40.6645 29.3801 40.6259C29.3713 40.5873 29.3535 40.5513 29.3281 40.5209C28.7435 39.8417 28.2401 39.0967 27.8281 38.3009C27.4371 37.5143 27.132 36.6879 26.9181 35.8359C26.9055 35.7857 26.8775 35.7406 26.8381 35.7071C26.7986 35.6736 26.7497 35.6532 26.6981 35.6489C24.7956 35.4703 22.8771 35.5815 21.0081 35.9789C20.9726 35.9865 20.9392 36.0018 20.9103 36.0236C20.8813 36.0454 20.8575 36.0733 20.8405 36.1053C20.8234 36.1373 20.8136 36.1726 20.8116 36.2088C20.8096 36.2451 20.8156 36.2812 20.8291 36.3149C21.6671 38.4569 23.1011 40.3149 24.9611 41.6679C25.0047 41.6994 25.0572 41.7162 25.1111 41.7159C26.5211 41.7059 27.9181 41.4339 29.2281 40.9139ZM38.9301 32.9569L38.9251 32.9489C38.8937 32.91 38.8514 32.8814 38.8036 32.8668C38.7559 32.8522 38.7048 32.8522 38.6571 32.8669C38.5233 32.9068 38.386 32.9339 38.2471 32.9479C38.1943 32.9539 38.1449 32.9765 38.1059 33.0125C38.0669 33.0484 38.0403 33.0959 38.0301 33.1479C37.4481 35.8079 35.9031 38.4979 32.2801 40.9909C32.2331 41.0229 32.1985 41.07 32.1821 41.1245C32.1657 41.1789 32.1685 41.2373 32.1901 41.2899C32.2046 41.3248 32.2268 41.3559 32.2551 41.3809C33.0997 42.1396 33.9886 42.8475 34.9171 43.5009C34.9469 43.5223 34.9812 43.5367 35.0174 43.5431C35.0535 43.5495 35.0907 43.5477 35.1261 43.5379C37.7051 42.8369 39.9761 41.2959 41.5821 39.1599C41.6023 39.1332 41.617 39.1028 41.6252 39.0703C41.6335 39.0378 41.6351 39.004 41.6301 38.9709C41.2405 36.774 40.3128 34.7079 38.9301 32.9569ZM25.7021 27.0579C25.7471 27.0509 25.7895 27.0319 25.8247 27.0029C25.8599 26.9738 25.8866 26.9358 25.9021 26.8929C26.0577 26.4502 26.3355 26.0605 26.7032 25.7689C27.0709 25.4773 27.5135 25.2957 27.9801 25.2449C27.9976 25.243 28.0142 25.2362 28.0281 25.2252C28.0419 25.2143 28.0523 25.1996 28.0581 25.1829C28.8442 23.4648 29.8731 21.8685 31.1131 20.4429C31.1447 20.4052 31.1644 20.3591 31.17 20.3103C31.1755 20.2614 31.1665 20.212 31.144 20.1683C31.1216 20.1245 31.0868 20.0883 31.044 20.0643C31.0011 20.0402 30.9521 20.0293 30.9031 20.0329C28.5127 20.2564 26.2442 21.1912 24.3904 22.7167C22.5366 24.2422 21.1825 26.2883 20.5031 28.5909C20.4891 28.6395 20.4901 28.6913 20.5062 28.7393C20.5222 28.7873 20.5524 28.8293 20.5929 28.8597C20.6333 28.8902 20.682 28.9077 20.7326 28.9098C20.7831 28.912 20.8332 28.8988 20.8761 28.8719C22.3464 27.949 23.9878 27.332 25.7021 27.0579ZM30.7731 42.0519C30.7365 42.0168 30.6902 41.9936 30.6402 41.9853C30.5902 41.9771 30.5389 41.9843 30.4931 42.0059C29.7351 42.3619 28.9431 42.6409 28.1281 42.8389C28.0753 42.8515 28.0281 42.8809 27.9935 42.9227C27.9589 42.9645 27.9389 43.0164 27.9364 43.0706C27.9339 43.1248 27.9491 43.1783 27.9797 43.2231C28.0103 43.2679 28.0547 43.3015 28.1061 43.3189C29.3581 43.7489 30.6741 43.9689 31.9991 43.9689C32.0991 43.9689 32.1991 43.9689 32.2991 43.9609C32.3498 43.9588 32.3987 43.9413 32.4392 43.9107C32.4798 43.8801 32.51 43.8379 32.526 43.7897C32.5419 43.7415 32.5428 43.6896 32.5286 43.6408C32.5143 43.5921 32.4855 43.5489 32.4461 43.5169C31.9201 43.0929 31.3461 42.5999 30.7731 42.0519ZM38.7441 28.4359C38.7441 28.4844 38.7584 28.5318 38.785 28.5723C38.8117 28.6128 38.8496 28.6446 38.8941 28.6639C39.2947 28.8378 39.636 29.1246 39.8761 29.4894C40.1163 29.8543 40.2448 30.2812 40.2461 30.7179C40.2461 31.0549 40.1661 31.3879 40.0161 31.6899C39.9939 31.7354 39.9861 31.7864 39.9936 31.8364C40.0011 31.8864 40.0236 31.933 40.0581 31.9699L40.0651 31.9789C41.1684 33.3525 42.0214 34.9096 42.5851 36.5789C42.5971 36.6148 42.6171 36.6474 42.6436 36.6744C42.6701 36.7014 42.7024 36.722 42.738 36.7347C42.7736 36.7474 42.8117 36.7519 42.8493 36.7478C42.8869 36.7436 42.923 36.731 42.9551 36.7109C42.9979 36.6836 43.0314 36.6438 43.0511 36.5969C43.6741 35.1329 43.9951 33.5579 43.9961 31.9669C43.9949 29.9046 43.4624 27.8774 42.45 26.0806C41.4376 24.2839 39.9795 22.7783 38.2161 21.7089C38.1737 21.683 38.1246 21.6703 38.075 21.6724C38.0254 21.6745 37.9776 21.6913 37.9376 21.7207C37.8975 21.7501 37.8672 21.7907 37.8504 21.8374C37.8335 21.8841 37.831 21.9348 37.8431 21.9829C38.3901 24.0919 38.6931 26.2569 38.7441 28.4359ZM29.6101 25.3799C29.585 25.4328 29.5793 25.4928 29.5939 25.5494C29.6085 25.606 29.6426 25.6558 29.6901 25.6899C30.0301 25.9299 30.3061 26.2509 30.4901 26.6249C30.5166 26.6784 30.5615 26.7207 30.6165 26.744C30.6716 26.7673 30.7331 26.7701 30.7901 26.7519C30.8564 26.7292 30.926 26.7177 30.9961 26.7179C33.0501 26.7959 35.0321 27.4899 36.6861 28.7089C36.7237 28.7377 36.7688 28.7553 36.8161 28.7595C36.8633 28.7638 36.9108 28.7546 36.9531 28.7329C36.9991 28.7089 37.0461 28.6859 37.0941 28.6659C37.139 28.6465 37.1772 28.6144 37.204 28.5736C37.2309 28.5327 37.2451 28.4848 37.2451 28.4359C37.1507 25.8335 36.7178 23.2545 35.9571 20.7639C35.9454 20.7258 35.9248 20.691 35.8969 20.6625C35.8691 20.634 35.8349 20.6125 35.7971 20.5999C35.0785 20.3574 34.3385 20.1839 33.5871 20.0819C33.5478 20.0768 33.5078 20.081 33.4705 20.0942C33.4331 20.1074 33.3994 20.1292 33.3721 20.1579C31.8738 21.7089 30.6068 23.4676 29.6101 25.3799Z"
              fill="#FF2D20"/>
    </g>
    <defs>
        <clipPath id="clip0_298_122">
            <rect width="24" height="24" fill="white" transform="translate(20 20)"/>
        </clipPath>
    </defs>
</svg>
