<svg width="64" height="64" viewBox="0 0 64 64" fill="none" xmlns="http://www.w3.org/2000/svg">
    <rect width="64" height="64" rx="32" fill="#FF2D20" fill-opacity="0.1"/>
    <path d="M43 24C42.9999 23.8296 42.9563 23.662 42.8733 23.5132C42.7902 23.3644 42.6706 23.2393 42.5256 23.1498C42.3807 23.0602 42.2152 23.0092 42.045 23.0015C41.8748 22.9938 41.7054 23.0298 41.553 23.106L32.224 27.77C32.1545 27.8048 32.0778 27.8229 32 27.8229C31.9222 27.8229 31.8455 27.8048 31.776 27.77L22.447 23.106C22.2946 23.0298 22.1252 22.9938 21.955 23.0015C21.7848 23.0092 21.6194 23.0602 21.4744 23.1498C21.3295 23.2393 21.2098 23.3644 21.1268 23.5132C21.0437 23.662 21.0001 23.8296 21 24V37.382C20.9986 37.7538 21.1014 38.1185 21.2967 38.4349C21.492 38.7513 21.772 39.0066 22.105 39.172L31.553 43.9C31.693 43.965 31.846 44 32 44C32.154 43.995 32.306 43.96 32.447 43.895L41.9 39.171C42.2319 39.005 42.5108 38.7495 42.7052 38.4334C42.8996 38.1172 43.0017 37.7531 43 37.382V24ZM23 26.023C23.0001 25.9804 23.0111 25.9385 23.0319 25.9013C23.0527 25.8642 23.0826 25.8329 23.1189 25.8106C23.1552 25.7883 23.1965 25.7756 23.2391 25.7737C23.2816 25.7718 23.3239 25.7809 23.362 25.8L30.862 29.55C30.9033 29.5708 30.9381 29.6026 30.9625 29.642C30.9868 29.6814 30.9998 29.7267 31 29.773V40.973C31.0001 41.0156 30.9893 41.0576 30.9685 41.0949C30.9478 41.1322 30.9179 41.1636 30.8816 41.186C30.8453 41.2085 30.8038 41.2213 30.7612 41.2232C30.7186 41.2251 30.6762 41.2161 30.638 41.197L23.138 37.447C23.0971 37.4264 23.0625 37.3951 23.0382 37.3563C23.0139 37.3175 23.0007 37.2727 23 37.227V26.023ZM41 37.223C41.0001 37.2694 40.9872 37.315 40.9629 37.3546C40.9385 37.3941 40.9036 37.4261 40.862 37.447L33.362 41.197C33.305 41.2259 33.239 41.2317 33.1777 41.2133C33.1165 41.1949 33.0646 41.1536 33.033 41.098C33.012 41.0614 33.0007 41.0201 33 40.978V29.772C33 29.7255 33.0129 29.68 33.0373 29.6404C33.0617 29.6009 33.0965 29.5689 33.138 29.548L40.638 25.798C40.6762 25.7788 40.7186 25.7698 40.7612 25.7717C40.8038 25.7736 40.8453 25.7864 40.8816 25.8089C40.9179 25.8313 40.9478 25.8627 40.9685 25.9C40.9893 25.9373 41.0001 25.9793 41 26.022V37.223Z"
          fill="#FF2D20"/>
    <path d="M23.5501 21.8931L31.5501 25.9411C31.6898 26.0108 31.8439 26.0471 32.0001 26.0471C32.1563 26.0471 32.3103 26.0108 32.4501 25.9411L40.4501 21.8931C40.6784 21.769 40.8495 21.5609 40.9271 21.3128C41.0046 21.0648 40.9826 20.7963 40.8656 20.5642C40.7485 20.3321 40.5458 20.1547 40.3002 20.0696C40.0547 19.9844 39.7856 19.9982 39.5501 20.1081L32.2281 23.8141C32.1579 23.8491 32.0805 23.8673 32.0021 23.8673C31.9236 23.8673 31.8462 23.8491 31.7761 23.8141L24.4541 20.1081C24.2185 19.9982 23.9495 19.9844 23.7039 20.0696C23.4583 20.1547 23.2556 20.3321 23.1386 20.5642C23.0216 20.7963 22.9995 21.0648 23.0771 21.3128C23.1546 21.5609 23.3257 21.769 23.5541 21.8931H23.5501Z"
          fill="#FF2D20"/>
</svg>
