<svg width="64" height="65" viewBox="0 0 64 65" fill="none" xmlns="http://www.w3.org/2000/svg">
    <rect y="0.25" width="64" height="64" rx="32" fill="#FF2D20" fill-opacity="0.1"/>
    <g clip-path="url(#clip0_298_111)">
        <path d="M28.75 24.75H25.5C24.81 24.75 24.25 25.31 24.25 26V30.75C24.25 31.44 24.81 32 25.5 32H28.75C29.44 32 30 31.44 30 30.75V26C30 25.31 29.44 24.75 28.75 24.75Z"
              fill="#FF2D20"/>
        <path d="M44 30.25C44 29.4544 43.6839 28.6913 43.1213 28.1287C42.5587 27.5661 41.7956 27.25 41 27.25H39V22.75C39 22.2196 38.7893 21.7109 38.4142 21.3358C38.0391 20.9607 37.5304 20.75 37 20.75H22C21.4696 20.75 20.9609 20.9607 20.5858 21.3358C20.2107 21.7109 20 22.2196 20 22.75V40.25C20 41.1783 20.3687 42.0685 21.0251 42.7249C21.6815 43.3813 22.5717 43.75 23.5 43.75H40.5C41.4283 43.75 42.3185 43.3813 42.9749 42.7249C43.6313 42.0685 44 41.1783 44 40.25V30.25ZM23.5 41.75C23.1022 41.75 22.7206 41.592 22.4393 41.3107C22.158 41.0294 22 40.6478 22 40.25V23.25C22 23.1174 22.0527 22.9902 22.1464 22.8964C22.2402 22.8027 22.3674 22.75 22.5 22.75H36.5C36.6326 22.75 36.7598 22.8027 36.8536 22.8964C36.9473 22.9902 37 23.1174 37 23.25V40.25C37 40.545 37.037 40.838 37.11 41.124C37.1291 41.1979 37.131 41.2751 37.1156 41.3499C37.1002 41.4246 37.0679 41.4948 37.0212 41.5551C36.9745 41.6155 36.9146 41.6643 36.8461 41.6979C36.7776 41.7315 36.7023 41.749 36.626 41.749L23.5 41.75ZM42 40.25C42 40.6478 41.842 41.0294 41.5607 41.3107C41.2794 41.592 40.8978 41.75 40.5 41.75C40.1022 41.75 39.7206 41.592 39.4393 41.3107C39.158 41.0294 39 40.6478 39 40.25V29.75C39 29.6174 39.0527 29.4902 39.1464 29.3964C39.2402 29.3027 39.3674 29.25 39.5 29.25H41C41.2652 29.25 41.5196 29.3554 41.7071 29.5429C41.8946 29.7304 42 29.9848 42 30.25V40.25Z"
              fill="#FF2D20"/>
        <path d="M32.751 26.2971H34.751C34.9499 26.2971 35.1407 26.3761 35.2813 26.5168C35.422 26.6574 35.501 26.8482 35.501 27.0471V27.5471C35.501 27.746 35.422 27.9368 35.2813 28.0775C35.1407 28.2181 34.9499 28.2971 34.751 28.2971H32.751C32.5524 28.2974 32.3619 28.2189 32.2211 28.0789C32.0803 27.9388 32.0008 27.7487 32 27.5501V27.0501C31.9996 26.9513 32.0188 26.8534 32.0563 26.762C32.0939 26.6705 32.1492 26.5875 32.219 26.5175C32.2888 26.4475 32.3717 26.392 32.463 26.3542C32.5543 26.3164 32.6522 26.297 32.751 26.2971ZM32.751 30.2971H34.751C34.9499 30.2971 35.1407 30.3761 35.2813 30.5168C35.422 30.6574 35.501 30.8482 35.501 31.0471V31.5471C35.501 31.746 35.422 31.9368 35.2813 32.0774C35.1407 32.2181 34.9499 32.2971 34.751 32.2971H32.751C32.5524 32.2974 32.3619 32.2189 32.2211 32.0789C32.0803 31.9388 32.0008 31.7487 32 31.5501V31.0501C31.9996 30.9513 32.0188 30.8534 32.0563 30.762C32.0939 30.6705 32.1492 30.5875 32.219 30.5175C32.2888 30.4475 32.3717 30.392 32.463 30.3542C32.5543 30.3164 32.6522 30.297 32.751 30.2971ZM24.751 34.2971H34.751C34.9499 34.2971 35.1407 34.3761 35.2813 34.5168C35.422 34.6574 35.501 34.8482 35.501 35.0471V35.5471C35.501 35.746 35.422 35.9368 35.2813 36.0774C35.1407 36.2181 34.9499 36.2971 34.751 36.2971H24.751C24.5524 36.2974 24.3619 36.2189 24.2211 36.0789C24.0803 35.9388 24.0008 35.7487 24 35.5501V35.0501C23.9996 34.9513 24.0188 34.8534 24.0563 34.762C24.0939 34.6705 24.1492 34.5875 24.219 34.5175C24.2888 34.4475 24.3717 34.392 24.463 34.3542C24.5543 34.3164 24.6522 34.297 24.751 34.2971ZM24.75 38.2971H32.25C32.4489 38.2971 32.6397 38.3761 32.7803 38.5168C32.921 38.6574 33 38.8482 33 39.0471V39.5471C33 39.746 32.921 39.9368 32.7803 40.0774C32.6397 40.2181 32.4489 40.2971 32.25 40.2971H24.75C24.5516 40.2971 24.3613 40.2185 24.2207 40.0785C24.0802 39.9385 24.0008 39.7485 24 39.5501V39.0501C23.9996 38.9514 24.0187 38.8535 24.0562 38.7622C24.0937 38.6708 24.1489 38.5878 24.2186 38.5178C24.2883 38.4479 24.3711 38.3924 24.4623 38.3545C24.5535 38.3166 24.6513 38.2971 24.75 38.2971Z"
              fill="#FF2D20"/>
    </g>
    <defs>
        <clipPath id="clip0_298_111">
            <rect width="24" height="24" fill="white" transform="translate(20 20.25)"/>
        </clipPath>
    </defs>
</svg>
