<svg width="64" height="64" viewBox="0 0 64 64" fill="none" xmlns="http://www.w3.org/2000/svg">
    <rect width="64" height="64" rx="32" fill="#FF2D20" fill-opacity="0.1"/>
    <g clip-path="url(#clip0_298_102)">
        <path d="M44 28.25C44 28.1174 43.9473 27.9902 43.8536 27.8965C43.7598 27.8027 43.6326 27.75 43.5 27.75H20.5C20.3674 27.75 20.2402 27.8027 20.1464 27.8965C20.0527 27.9902 20 28.1174 20 28.25V40.25C20 40.913 20.2634 41.5489 20.7322 42.0178C21.2011 42.4866 21.837 42.75 22.5 42.75H41.5C41.8283 42.75 42.1534 42.6853 42.4567 42.5597C42.76 42.4341 43.0356 42.2499 43.2678 42.0178C43.4999 41.7856 43.6841 41.51 43.8097 41.2067C43.9353 40.9034 44 40.5783 44 40.25V28.25ZM36.235 34.118C36.4605 34.2092 36.6537 34.3656 36.7897 34.5673C36.9257 34.769 36.9984 35.0067 36.9984 35.25C36.9984 35.4933 36.9257 35.731 36.7897 35.9327C36.6537 36.1344 36.4605 36.2908 36.235 36.382L29.609 39.158C29.4355 39.2328 29.2462 39.2638 29.0579 39.2482C28.8695 39.2327 28.6879 39.171 28.529 39.0688C28.3701 38.9666 28.2387 38.8269 28.1464 38.6619C28.0542 38.497 28.0039 38.3119 28 38.123V32.377C28.0034 32.1879 28.0534 32.0025 28.1455 31.8373C28.2376 31.6721 28.369 31.5322 28.5281 31.4299C28.6872 31.3275 28.869 31.266 29.0576 31.2507C29.2461 31.2353 29.4355 31.2667 29.609 31.342L36.235 34.118ZM39.564 21.677C39.5991 21.642 39.6229 21.5975 39.6326 21.5489C39.6423 21.5003 39.6374 21.45 39.6184 21.4043C39.5994 21.3585 39.5673 21.3195 39.5261 21.292C39.4849 21.2645 39.4365 21.2499 39.387 21.25H35.6C35.5731 21.2505 35.5473 21.2612 35.528 21.28L30.988 25.823C30.9529 25.858 30.9291 25.9026 30.9194 25.9511C30.9097 25.9997 30.9146 26.05 30.9336 26.0957C30.9526 26.1415 30.9847 26.1806 31.0259 26.208C31.0671 26.2355 31.1155 26.2501 31.165 26.25H34.948C34.975 26.25 35.002 26.24 35.021 26.22L39.564 21.677ZM42.071 21.318C42.063 21.316 42.0547 21.3162 42.0468 21.3185C42.0389 21.3208 42.0317 21.3251 42.026 21.331L37.534 25.823C37.5076 25.8491 37.4874 25.8807 37.4748 25.9156C37.4622 25.9504 37.4576 25.9877 37.4612 26.0246C37.4649 26.0615 37.4767 26.0971 37.4959 26.1288C37.515 26.1605 37.541 26.1876 37.572 26.208C37.6134 26.2356 37.6622 26.2503 37.712 26.25H43.496C43.6286 26.25 43.7558 26.1973 43.8496 26.1036C43.9433 26.0098 43.996 25.8826 43.996 25.75V23.75C43.9958 23.1871 43.8056 22.6408 43.4562 22.1994C43.1069 21.758 42.6188 21.4475 42.071 21.318ZM33.014 21.677C33.0491 21.642 33.073 21.5973 33.0827 21.5487C33.0923 21.5 33.0873 21.4496 33.0682 21.4038C33.0491 21.358 33.0169 21.319 32.9755 21.2916C32.9342 21.2642 32.8856 21.2497 32.836 21.25H29.101C29.0737 21.2502 29.0476 21.261 29.028 21.28L24.488 25.823C24.4529 25.858 24.4291 25.9026 24.4194 25.9511C24.4097 25.9997 24.4146 26.05 24.4336 26.0957C24.4526 26.1415 24.4847 26.1806 24.5259 26.208C24.5671 26.2355 24.6155 26.2501 24.665 26.25H28.4C28.4273 26.2498 28.4534 26.239 28.473 26.22L33.013 21.677H33.014ZM26.513 21.677C26.5481 21.642 26.5719 21.5975 26.5816 21.5489C26.5913 21.5003 26.5864 21.45 26.5674 21.4043C26.5484 21.3585 26.5163 21.3195 26.4751 21.292C26.4339 21.2645 26.3855 21.2499 26.336 21.25H22.5C21.837 21.25 21.2011 21.5134 20.7322 21.9822C20.2634 22.4511 20 23.087 20 23.75V25.75C20 25.8826 20.0527 26.0098 20.1464 26.1036C20.2402 26.1973 20.3674 26.25 20.5 26.25H21.9C21.9273 26.2498 21.9534 26.239 21.973 26.22L26.513 21.677Z"
              fill="#FF2D20"/>
    </g>
    <defs>
        <clipPath id="clip0_298_102">
            <rect width="24" height="24" fill="white" transform="translate(20 20)"/>
        </clipPath>
    </defs>
</svg>
